<svg xmlns="http://www.w3.org/2000/svg" viewBox="0 0 460 460" aria-hidden="true">
  <g>
    <path fill="#121923" d="M455.987 460H330.078l-20-101.425 20-101.425C404.683 294 455.987 371.147 455.987 460z"/>
    <polygon fill="#DAE0E7" points="300.078,257.149 320.078,358.575 300.078,460 230.159,460 220,293 272.091,257.149"/>
    <polygon fill="#FFFFFF" points="160.241,257.149 140.241,358.575 160.241,460 230.159,460 230,293 187.909,257.149"/>
    <polygon fill="#5E7CA1" points="246.847,293 270.387,422.92 230,460 220,283"/>
    <polygon fill="#183C63" points="213.153,293 189.613,422.92 230,460 230,283"/>
    <polygon fill="#183C63" points="272.091,257.149 246.847,293 230,293 220,275.075 230,257.149"/>
    <polygon fill="#5E7CA1" points="187.909,257.149 213.153,293 230,293 230,257.149"/>
    <rect x="300.078" y="257.149" fill="#233145" width="30" height="202.851"/>
    <path fill="#233145" d="M4.013 460h125.909l20-101.425-20-101.425C55.317 294 4.013 371.147 4.013 460z"/>
    <rect x="129.922" y="257.149" fill="#466289" width="30" height="202.851"/>
    <polygon fill="#FFB739" points="230,0 220,188 339.756,168 359.167,51.5 305.333,75.333"/>
    <polygon fill="#FFCB70" points="230,0 230,188 120.244,168 100.833,51.5 154.667,75.333"/>
    <polygon fill="#FB992D" points="230,228 329.759,228 339.756,168 230,168 200,198"/>
    <polygon fill="#FFB739" points="230,228 130.241,228 120.244,168 230,168"/>
  </g>
</svg>
