<svg xmlns="http://www.w3.org/2000/svg" viewBox="0 0 56 56" aria-hidden="true">
  <path fill="#D3EF30" d="M7.062 27.616c.228 5.148 2.462 9.679 6.296 12.763 3.979 3.201 9.2 4.521 14.318 3.617 3.038-.535 6.062-2.102 8.743-4.53 1.628-1.475 3.111-3.121 4.408-4.891 3.796-5.178 4.756-11.798 2.505-17.277-2.603-6.334-8.319-10.295-15.3-10.603-4.898.316-9.002-.945-11.856-3.663a1.014 1.014 0 0 1-.219-.313C10.348 5.394 5.775 9.884 2.984 15.427c.101.049.2.107.283.192 2.81 2.86 4.123 7.007 3.795 11.997Z"/>
  <path fill="#D3EF30" d="M28 0c-3.558 0-6.958.671-10.089 1.881 2.436 2.115 5.892 3.092 10.043 2.814l.055-.004.054.002c7.807.323 14.207 4.751 17.12 11.844 2.514 6.119 1.464 13.483-2.741 19.22-1.377 1.878-2.951 3.625-4.679 5.191-2.961 2.682-6.329 4.417-9.738 5.018a20.454 20.454 0 0 1-3.52.308c-4.503 0-8.885-1.508-12.4-4.336-4.303-3.462-6.804-8.538-7.043-14.292l-.002-.055.003-.055c.289-4.251-.741-7.761-2.954-10.205A27.915 27.915 0 0 0 0 28c0 15.464 12.536 28 28 28s28-12.536 28-28S43.464 0 28 0Z"/>
  <path fill="#FFFFFF" d="m5.063 27.536-.003.055.002.055c.238 5.754 2.739 10.83 7.042 14.292 3.516 2.828 7.897 4.336 12.4 4.336 1.169 0 2.347-.102 3.52-.308 3.409-.601 6.777-2.335 9.738-5.018 1.728-1.566 3.302-3.313 4.679-5.191 4.205-5.737 5.255-13.101 2.741-19.22C42.27 9.444 35.869 5.017 28.062 4.693l-.054-.002-.055.004c-4.151.279-7.607-.699-10.043-2.814-.663.256-1.316.532-1.954.837.052.114.123.222.219.313 2.854 2.718 6.958 3.979 11.856 3.663 6.98.308 12.697 4.269 15.3 10.603 2.251 5.479 1.291 12.099-2.505 17.277-1.297 1.771-2.78 3.416-4.408 4.891-2.682 2.429-5.705 3.995-8.743 4.53-5.118.903-10.34-.416-14.318-3.617-3.834-3.084-6.068-7.615-6.296-12.763.327-4.989-.985-9.137-3.796-11.997a1.12 1.12 0 0 0-.283-.192 27.488 27.488 0 0 0-.874 1.904c2.166 2.447 3.195 5.956 2.906 10.207Z"/>
</svg>
